<svg id="why-icon05" xmlns="http://www.w3.org/2000/svg" width="48" height="48" viewBox="0 0 48 48">
  <path id="Path_3077" data-name="Path 3077" d="M33.75,13.5h-9a3.75,3.75,0,0,1,0-7.5h9a3.75,3.75,0,0,1,0,7.5Zm-9-6a2.25,2.25,0,0,0,0,4.5h9a2.25,2.25,0,1,0,0-4.5Z" transform="translate(-5.25 -1.5)" fill="#214842"/>
  <path id="Path_3078" data-name="Path 3078" d="M47.274,12.782l-8.25-11.25A3.764,3.764,0,0,0,36,0H12A3.764,3.764,0,0,0,8.976,1.532L.726,12.782A3.729,3.729,0,0,0,0,15V44.25A3.755,3.755,0,0,0,3.75,48h40.5A3.755,3.755,0,0,0,48,44.25V15a3.729,3.729,0,0,0-.726-2.218ZM46.5,44.25a2.25,2.25,0,0,1-2.25,2.25H3.75A2.25,2.25,0,0,1,1.5,44.25V16.5H45A.75.75,0,0,0,45,15H1.5a2.237,2.237,0,0,1,.436-1.33l8.25-11.25A2.257,2.257,0,0,1,12,1.5H36a2.257,2.257,0,0,1,1.814.92l8.25,11.25A2.237,2.237,0,0,1,46.5,15Z" fill="#214842"/>
  <path id="Path_3079" data-name="Path 3079" d="M28.5,28a10.5,10.5,0,0,0-2.423,20.708.75.75,0,1,0,.346-1.46,8.977,8.977,0,1,1,2.827.22V44.9C30.256,44.193,33,41.95,33,38.5c0-4.125-3.947-6.542-4.114-6.643a.75.75,0,0,0-.773,0C27.947,31.958,24,34.375,24,38.5c0,3.446,2.744,5.693,3.75,6.4V48.25a.75.75,0,0,0,.75.75,10.5,10.5,0,1,0,0-21Zm-3,10.5c0-2.6,2.114-4.434,3-5.092.888.655,3,2.484,3,5.092a6.286,6.286,0,0,1-2.25,4.468V38.5a.75.75,0,0,0-1.5,0v4.473A6.263,6.263,0,0,1,25.5,38.5Z" transform="translate(-4.5 -7)" fill="#214842"/>
</svg>
