<svg xmlns="http://www.w3.org/2000/svg" width="61.208" height="48" viewBox="0 0 61.208 48">
  <g id="why-icon06" transform="translate(-24.472 -22.797)">
    <path id="Path_3080" data-name="Path 3080" d="M82.927,30.68c-3.909-3.9-10.543-3.622-14.789.625A14.333,14.333,0,0,0,66.8,32.883a20.762,20.762,0,0,0-3.627-2.242A12.372,12.372,0,0,0,56.981,27.3a3.276,3.276,0,1,0-6.048,0,12.359,12.359,0,0,0-6.192,3.337,20.15,20.15,0,0,0-6.809,5.33l-5.81-6.807a.84.84,0,0,0-.64-.3H25.409a.842.842,0,0,0-.778.522,2.384,2.384,0,0,0,1.158,3,4.5,4.5,0,0,0,.89.352,3.76,3.76,0,0,1,2.048,1.313c.532.631.572,2.548.609,4.4.077,3.776.193,8.88,4.38,10.557A18.964,18.964,0,0,0,43.35,64.135a.838.838,0,0,0,.423.114H64.144a.838.838,0,0,0,.423-.114A19.1,19.1,0,0,0,73.9,51.252,35.02,35.02,0,0,0,82.3,45.47C86.547,41.218,86.831,34.583,82.927,30.68Zm-35.379-.185a12.044,12.044,0,0,1,12.818,0Zm4.814-4.422a1.595,1.595,0,1,1,3.189,0,1.578,1.578,0,0,1-.318.953c-.422-.038-.847-.061-1.277-.061s-.855.023-1.277.061A1.583,1.583,0,0,1,52.362,26.073ZM31.017,38.42c-.048-2.342-.088-4.364-1-5.451a5.387,5.387,0,0,0-2.83-1.834,3.187,3.187,0,0,1-.564-.21.966.966,0,0,1-.4-.372h4.872l5.8,6.8a18.434,18.434,0,0,0-3.2,9.781C31.17,45.575,31.085,41.8,31.017,38.42Zm32.9,24.148H44a17.052,17.052,0,0,1,1.42-30.392H58.178V40.02H56.394a.84.84,0,0,0-.841.841V47.54a.84.84,0,0,0,.841.841h5.251a.84.84,0,0,0,.841-.841V40.861a.84.84,0,0,0-.841-.841H59.86V32.176H62.5a17.052,17.052,0,0,1,1.419,30.392ZM60.8,41.7v5H57.233v-5Zm9.656-5.145a18.771,18.771,0,0,1,1.316-1.61c2.245-2.236,5.618-2.515,7.516-.625s1.607,5.258-.633,7.506a26.935,26.935,0,0,1-4.589,3.45A18.508,18.508,0,0,0,70.459,36.557Zm3.72,12.656c.038-.483.063-.969.063-1.46,0-.2-.016-.405-.023-.609a29.959,29.959,0,0,0,5.628-4.128c2.894-2.9,3.178-7.338.631-9.884s-6.991-2.262-9.892.625a18.671,18.671,0,0,0-1.239,1.478q-.6-.658-1.262-1.264a12.937,12.937,0,0,1,1.241-1.478c3.59-3.59,9.16-3.87,12.412-.624s2.963,8.815-.632,12.412A32.617,32.617,0,0,1,74.179,49.213Z" fill="#214842"/>
    <path id="Path_3083" data-name="Path 3083" d="M72.706,73.77H57.225a.841.841,0,1,0,0,1.681H72.706a.841.841,0,0,0,0-1.681ZM60.211,77.238H50.366a.841.841,0,1,0,0,1.681h9.846a.841.841,0,1,0,0-1.681Z" transform="translate(-3.992 -8.122)" fill="#214842"/>
  </g>
</svg>
