<svg xmlns="http://www.w3.org/2000/svg" width="76.339" height="48.457" viewBox="0 0 76.339 48.457">
  <path id="why-icon01" d="M111.524,158.89a6.781,6.781,0,0,1-13.248,0h-7V144.859l.324-.469,10.537-15.261h14.22V115.764h51.258V158.89H157.509a6.781,6.781,0,0,1-13.248,0Zm43.585-30.019-8.5,8.419,3.343,4.195-25.663,8.756,13.141-12.792-3.3-4.135,25.507-8.937-4.535,4.493Zm-11.446,7.284,4.878-4.834-9.616,3.37,2.394,3-5.835,5.679,9.662-3.3-2.4-3.011.919-.91ZM107.648,154.7a3.88,3.88,0,1,0,1.142,2.749A3.887,3.887,0,0,0,107.648,154.7Zm3.88,1.3h4.837V132.02H103.644l-.807,1.168h7.131v13.559h-15.8V156h4.1a6.781,6.781,0,0,1,13.248,0Zm42.118-1.3a1.613,1.613,0,1,1-.005,0Zm3.88,1.3h7.213V118.66H119.253V156H144.27a6.781,6.781,0,0,1,13.248,0Zm-45.8-21.366a1.446,1.446,0,0,1,2.892,0V145.3a1.446,1.446,0,1,1-2.892,0Zm-16.245,9.22h11.6v-7.773h-5.951a1.516,1.516,0,0,1-.268-.025l-5.384,7.8Z" transform="translate(-91.278 -115.764)" fill="#214842"/>
</svg>
