<svg xmlns="http://www.w3.org/2000/svg" width="59.232" height="49.191" viewBox="0 0 59.232 49.191">
  <g id="why-icon02" transform="translate(-151.896 -99.981)">
    <path id="Path_2871" data-name="Path 2871" d="M209.118,129.059a4.261,4.261,0,0,0-4.11-.276l-9.32,4.334h0a4.234,4.234,0,0,0-3.132-4.008A16.661,16.661,0,1,0,165.448,112.2l-1.225-.175,1.828,4.66,3.106-3.908-1.225-.176a14.156,14.156,0,1,1,20.595,16.36h-7.841l-2.932-3.031a3.808,3.808,0,0,0-2.706-1.1H162.72a3.809,3.809,0,0,0-3.583-2.5h-5.989a1.252,1.252,0,0,0-1.252,1.252v11.074a1.252,1.252,0,1,0,2.5,0v-9.871h4.66a1.3,1.3,0,0,1,1.3,1.3v15.333a1.3,1.3,0,0,1-1.3,1.3H154.4v-3.981a1.252,1.252,0,1,0-2.5,0v5.212a1.252,1.252,0,0,0,1.252,1.252h5.913a3.808,3.808,0,0,0,3.433-2.155l15.257,5.716a6.438,6.438,0,0,0,5.011-.2l25.981-12.051a4.259,4.259,0,0,0,.376-7.44Zm-1.554,5.185L181.584,146.3a3.907,3.907,0,0,1-3.006,0l-15.708-5.762v-13.2h12.1a1.306,1.306,0,0,1,.927.376l3.382,3.357h0a1.253,1.253,0,0,0,.877.376H191.4a1.753,1.753,0,0,1,1.754,1.728,1.678,1.678,0,0,1-.827,1.429H175.246a1.252,1.252,0,1,0,0,2.5h18.039l12.778-5.938h0a1.752,1.752,0,0,1,1.7,0,1.728,1.728,0,0,1,.8,1.478,1.754,1.754,0,0,1-1,1.6Z" transform="translate(0 0)" fill="#214842"/>
    <path id="Path_2872" data-name="Path 2872" d="M321.3,139.365a5.235,5.235,0,0,0,3.282,4.885,5.592,5.592,0,0,0,.8.25v5.537a2.806,2.806,0,0,1-1.429-1.6,1.256,1.256,0,1,0-2.38.8,5.308,5.308,0,0,0,3.833,3.457v1.679h0a1.252,1.252,0,1,0,2.5,0v-1.654a5.308,5.308,0,0,0,1.353-9.822,5.818,5.818,0,0,0-1.353-.376v-5.662a2.807,2.807,0,0,1,1.429,1.579,1.266,1.266,0,0,0,2.355-.927,5.308,5.308,0,0,0-3.783-3.307v-1.7a1.252,1.252,0,1,0-2.5,0v1.679a5.335,5.335,0,0,0-4.108,5.185Zm6.815,5.813h0a2.756,2.756,0,0,1-.2,4.86V145.03Zm-2.706-8.344v5.011a2.63,2.63,0,0,1-1.578-2.5,2.83,2.83,0,0,1,1.578-2.5Z" transform="translate(-145.152 -26.794)" fill="#214842"/>
  </g>
</svg>
